<svg width="352.421" height="178.132" xmlns="http://www.w3.org/2000/svg">
    <path style="fill:#000" d="M74.784 176.782c-9.245-3.25-17.823-7.142-24.165-10.965-16.147-9.733-31.253-23.094-38.704-34.233-4.632-6.924-7.14-12.582-9.255-20.87C.491 102.213.004 98.344 0 89.606c-.006-10.142 1.194-17.535 4.456-27.451 3.923-11.928 13.991-24.948 27.881-36.053 4.4-3.518 11.912-8.888 15.855-11.333 2.572-1.595 3.16-1.812 5.39-1.986 4.275-.333 7.444-.066 12.205 1.027 2.119.486 2.39.48 6.864-.158 2.125-.303 4.014-.458 4.197-.345.572.353 2.698.435 2.698.103 0-.173-.16-.413-.353-.533-.69-.427-.33-.882 1.386-1.751.956-.485 1.839-1.043 1.961-1.241.122-.198 1.275-.36 2.562-.36 2.009 0 2.25-.065 1.711-.459-.913-.668-.219-1.094 3.008-1.845 2.775-.646 4.051-.53 3.718.338-.105.273.05.59.345.703.82.314.884.265.765-.574-.09-.638.175-.886 1.453-1.362 2.438-.906 4.025-.02 1.951 1.09-.744.398-.803.53-.353.783.847.474.65.902-.745 1.617-1.658.851-.93 1.416.78.605.672-.319 1.39-.475 1.596-.348.206.128.169-.098-.083-.502-.396-.634-.364-.805.238-1.26.384-.29 1.173-.542 1.755-.56.99-.032 1.007-.055.265-.353-.937-.377-1.003-.787-.23-1.43.616-.51 2.581-.495 3.1.025.198.197.585.185.99-.031.926-.496 2.029-.063 2.413.948.178.468.475.852.659.852.184 0 .094-.483-.2-1.072-.398-.796-.434-1.192-.143-1.543.49-.591 3.358-1.416 4.027-1.16.275.106.637.059.806-.104.83-.798 18.156-1.51 18.617-.765.23.371 7.421.175 11.853-.323 4.005-.45 11.51-.245 12.086.33.222.222 1.304.403 2.406.403 3.263 0 3.627 1.363.514 1.925-2.174.392-3.439 1.165-3.19 1.948.122.384.004.783-.282.952-.27.16-.713.767-.985 1.349s-1.007 1.296-1.633 1.587c-.856.398-1.141.76-1.147 1.456-.004.51-.225 1.108-.491 1.329-.748.62-5.511 2.154-6.691 2.154-.58 0-1.729.396-2.554.88-.824.483-2.469 1.104-3.654 1.38-1.556.364-2.436.805-3.17 1.591-.56.599-1.19 1.088-1.403 1.088-.213 0-.389.199-.39.441-.002.632-2.053 2.734-2.666 2.734-.284 0-.792-.14-1.13-.311-.336-.171-1.088-.452-1.67-.625-.749-.221-1.093-.568-1.176-1.188-.065-.48-.264-1.025-.441-1.21-.626-.65-.37-3.92.383-4.877.396-.503.611-1.147.49-1.463-.12-.311-.027-.795.206-1.075.232-.28.331-.657.22-.837-.112-.18.033-.525.322-.764.644-.535.657-1.381.034-2.202-.373-.491-1.008-.617-3.109-.617-2.11 0-2.758-.13-3.224-.645-.321-.355-.584-.842-.584-1.083 0-.25-.263-.358-.617-.253-.34.1-1.054.287-1.588.415-.534.127-.97.367-.97.532 0 .166-.643.474-1.43.686-1.395.376-2.286 1.402-1.456 1.679.23.076.416.443.416.815 0 .372.23.676.51.676.737 0 2.921 1.355 3.152 1.956.108.283.105.751-.006 1.043-.112.29-.067.534.1.541.166.007.76.388 1.32.846l1.018.832-1.519 1.1c-.955.692-1.758 1.024-2.164.895-.502-.16-.646-.019-.646.63 0 .995-.606 1.682-1.482 1.682-.35 0-.635.159-.635.353 0 1.044-3.84-.067-4.538-1.312-.253-.452-.71-.58-1.8-.501-.802.058-1.693-.089-1.98-.326-.892-.741.358-1.742 2.178-1.742.832 0 1.61-.159 1.73-.353.12-.194-.109-.352-.508-.352-.923 0-.933-.762-.021-1.588.927-.84.894-1.212-.088-.984-.437.101-1.38.797-2.096 1.547-.945.99-1.702 1.426-2.765 1.596l-1.463.234 1.001.808c.828.667.934.918.611 1.449-.362.597-.243.633 1.707.52 1.691-.097 2.243.012 2.859.565.42.378 1.041.784 1.38.904.683.241.811.785.265 1.122-.462.286-.456 1.235.008 1.235.198 0 .998-.422 1.778-.938.9-.595 1.541-.816 1.754-.602.185.185.441 1.334.569 2.554.192 1.838.363 2.269.998 2.51 1.881.716 2.428 3.439 1.006 5.01-.32.353-.516.681-.436.729.08.047.462.26.85.474.946.52 1.13 2.457.318 3.354-.479.53-.888.628-1.876.453-.696-.123-1.415-.364-1.6-.534-.184-.17-.858-.31-1.499-.31-1.476 0-1.584-.993-.242-2.238l.922-.855-1.01.176c-.556.097-1.201.416-1.434.71-.246.308-.772.465-1.251.374-.574-.11-1.016.093-1.446.663-.606.804-.6.829.338 1.185.66.25 1.071.25 1.323-.002.701-.701 1.283-.384 1.283.698 0 1.144-.027 1.162-4.24 2.776-2.263.867-3.072.934-3.23.267-.092-.387-.405-.356-1.614.162-1.207.516-1.499.817-1.499 1.546 0 .725-.212.948-1.066 1.119-.586.117-1.15.351-1.255.52-.105.169-.538.32-.963.336-1.011.038-4.124 3.572-4.124 4.683 0 .85-.767 1.718-1.86 2.105-.841.3-4.74 2.961-5.035 3.439-.13.21-.127 1.25.006 2.313.237 1.897.261 1.93 1.315 1.826 1.412-.141 2.1.796 1.267 1.724-.315.351-.626 1.102-.69 1.67-.146 1.272-.82 1.554-1.349.564-.497-.929-.147-2.114.637-2.16.347-.02.227-.14-.288-.288-.722-.206-.936-.103-1.176.565-.194.536-.577.816-1.118.816-.645 0-.944-.323-1.383-1.499-.308-.825-.52-1.976-.47-2.558.076-.903-.022-1.043-.673-.953-.42.058-.865-.061-.99-.264-.356-.576-3.01-.469-3.01.12 0 .654-1.605 1.03-2.453.577-1.093-.585-2.29-.421-4.03.551-1.13.632-1.694 1.202-1.833 1.852-.11.517-.366 1.336-.57 1.822-1.136 2.708-.988 4.942.42 6.35.603.603.824.626 2.187.232 1.03-.298 1.657-.73 1.955-1.348.61-1.268 1.103-1.583 2.811-1.8 2.137-.271 2.448.284 1.366 2.439-.477.95-1.032 2.16-1.233 2.689l-.366.963h1.688c2.057 0 3.412 1.002 3.017 2.232-.348 1.086-.826 3.17-.822 3.588.002.194.31.722.687 1.173.637.765.77.79 1.954.361 1.094-.395 1.409-.38 2.269.114 1.013.582 1.773.322 1.773-.605 0-.592 1.192-1.572 1.913-1.572.343 0 1.068-.317 1.612-.704 1.216-.866 2.683-.655 4.011.576.96.89 1.442.948 6.045.738 1.687-.077 1.77-.038 1.876.894.164 1.42 3.223 4.524 4.207 4.267 1.816-.475 5.383 2.007 5.383 3.746 0 .37.158.77.353.89.194.12.353.645.353 1.167 0 .857.209 1.011 2.123 1.574 1.167.343 2.44.94 2.828 1.328.474.475 1.394.778 2.81.926 1.671.174 2.379.453 3.434 1.35.73.62 1.759 1.235 2.285 1.364.748.184 1.043.55 1.345 1.673.485 1.802.206 3.112-1.003 4.704-2.017 2.657-2.575 3.798-2.352 4.813.224 1.021-.305 4.47-1.038 6.762-.575 1.799-1.767 3.09-2.853 3.09-.916 0-3.43 1.396-3.908 2.17-.148.24-.235 1.087-.194 1.884.06 1.164-.285 2.105-1.753 4.783-1.998 3.642-2.507 4.216-3.735 4.216-.714 0-.765.085-.4.669.291.467.316 1.025.083 1.852-.286 1.012-.578 1.257-2.023 1.693-1.503.453-1.666.6-1.483 1.33.139.552.03.89-.33 1.027-.355.137-.467.476-.332 1.012.111.444.03.913-.179 1.043-.21.13-.381.707-.381 1.284 0 .605-.223 1.134-.527 1.25-.674.26-.349.788.737 1.2.934.356 1.094 1.284.44 2.55a47.62 47.62 0 0 0-.656 1.318c-.254.54 1.888 3.528 2.529 3.528.177 0 .87.23 1.541.51 2.694 1.125-.392 2.711-3.472 1.784-2.436-.733-5.102-2.27-6.095-3.513-.472-.59-.997-1.248-1.168-1.46-.665-.829-1.443-2.614-1.443-3.312 0-.404-.237-.825-.527-.936-.345-.132-.458-.477-.327-.997.11-.437-.13-1.889-.534-3.226-.403-1.338-.787-2.919-.853-3.514-.067-.595-.287-1.378-.49-1.74-.217-.389-.292-1.776-.182-3.379.116-1.696.027-3.164-.238-3.903-.233-.652-.51-3.725-.614-6.83-.106-3.104-.373-6.197-.595-6.872-.316-.965-.995-1.618-3.158-3.037-2.56-1.68-2.856-2.006-4.176-4.593-2.022-3.962-3.158-5.869-3.864-6.483-.86-.75-1.155-2.512-.556-3.331.367-.501.398-.904.126-1.625-.281-.746-.222-1.262.267-2.325.346-.752.81-1.527 1.031-1.724 1.26-1.118 1.99-2.702 1.99-4.32 0-.94-.143-1.859-.319-2.043-.175-.185-.388-.653-.473-1.04-.138-.627-.2-.598-.555.264-.442 1.073-1.48 1.285-2.178.445-.24-.29-.57-.442-.736-.34-.165.102-.66-.178-1.1-.622-.44-.443-1.12-.969-1.512-1.168-.391-.199-.765-.754-.831-1.235-.175-1.282-1.347-2.363-3.245-2.994-.921-.306-2.232-1.097-2.913-1.758-1.135-1.102-1.324-1.169-2.284-.806-.94.355-1.388.227-4.38-1.247-4.192-2.067-5.048-2.91-4.72-4.654.19-1.011.055-1.59-.643-2.782-.485-.827-1.129-1.71-1.431-1.96-.302-.251-.55-.737-.55-1.08 0-.343-.312-.998-.694-1.456l-.694-.833.391 1.235c.216.679.628 1.821.916 2.539.288.717.43 1.55.314 1.852-.258.67-1.644.733-1.644.073 0-.26-.317-.762-.705-1.113-.388-.351-.706-.992-.706-1.425 0-.45-.377-1.034-.882-1.365-.93-.609-1.187-1.81-.44-2.062.344-.116.348-.26.015-.664-.234-.283-.551-1.535-.706-2.78-.238-1.924-.414-2.333-1.162-2.704-1.028-.51-1.312-1.498-1.37-4.774-.045-2.586.246-3.22 3.374-7.333 2.085-2.743 2.364-3.614 1.506-4.705-.88-1.12-.874-1.89.018-2.174.388-.123.723-.332.746-.465.32-1.92.267-2.159-.393-1.747-.363.227-.74.716-.836 1.085-.25.957-1.083.548-1.218-.597-.157-1.33.533-2.044 1.85-1.912.867.086 1.101-.034 1.163-.597.042-.388.18-1.142.306-1.676.197-.839.12-.97-.566-.97-.437 0-1.163-.397-1.612-.882-.452-.488-1.212-.882-1.7-.882-.485 0-1.282-.182-1.77-.405-.606-.276-1.031-.29-1.34-.046-.63.5-3.923 1.236-4.908 1.096-.595-.084-.937.135-1.265.81-.527 1.09-2.23 1.894-3.36 1.587-.453-.123-1.936.153-3.442.642-4.128 1.34-6.507 1.96-7.517 1.96-1.808 0-12.65 11.603-17.004 18.196-2.633 3.988-5.293 9.07-6.565 12.544-1.55 4.231-3.69 12.85-4.412 17.772-.845 5.761-.845 16.455 0 22.215.814 5.542 2.998 14.036 4.782 18.591 4.799 12.257 15.323 24.726 30.708 36.384 6.47 4.902 15.275 10.478 21.325 13.504l6.018 3.01.709-.848c.657-.788.876-.833 3.07-.634 2.793.253 3.301.156 2.737-.523-.653-.787-.107-1.122 1.86-1.142 1.023-.01 2.307-.19 2.853-.4.547-.209 1.84-.38 2.873-.38 1.4 0 1.935-.144 2.097-.566.163-.425.46-.503 1.184-.314.532.14 1.96.23 3.172.202 1.213-.028 2.205.073 2.205.225 0 .153.992.296 2.205.32 1.212.023 2.601.119 3.087.212.485.094 1.755.277 2.822.407 1.862.226 1.908.212 1.146-.345-.845-.617-1.091-2.227-.353-2.303.863-.089 3.98.093 4.587.268.34.098.617.41.617.694 0 .4.417.494 1.852.417 1.019-.054 1.945-.225 2.06-.38.113-.153 1.224-.127 2.469.06 1.244.187 3.405.338 4.802.335 2.43-.005 2.52-.035 2.116-.696-.35-.573-.316-.752.197-1.044.473-.268.537-.506.272-1.001-.416-.778.379-1.627 1.22-1.304.633.243.702-.17.126-.746-.679-.678 1.035-2.837 3.032-3.816 1.885-.926 2.847-1.07 3.21-.48.357.576-.898 1.741-1.875 1.741-.761 0-.81.072-.397.57.405.489.354.666-.36 1.244-.458.37-.77.723-.694.784.076.06.889.466 1.807.901 2.047.97 5.21 3.755 5.21 4.587 0 .865-1.423 2.094-2.726 2.355-1.118.224-2.565 1.303-2.565 1.914 0 .35.311.432 3.704.98 1.164.187 2.196.216 2.293.063.097-.152 1.208-.332 2.468-.399 2.073-.11 2.325-.049 2.629.642.311.707 1.548 1.192 2.973 1.165.501-.009.496-.055-.045-.37-.815-.475-.786-1.282.056-1.549.37-.117.763-.448.873-.734.315-.823 1.772-1.218 3.117-.846 1.513.418 2.86 1.645 2.587 2.357-.168.438 0 .497.902.317a13.26 13.26 0 0 1 2.148-.222c.958 0 .995-.045.467-.572-.314-.315-.524-.81-.466-1.099.126-.627 4.236-2.196 5.775-2.204.595-.003 1.894-.247 2.886-.542 1.366-.405 1.832-.72 1.916-1.295.072-.484.496-.882 1.17-1.096.583-.186 1.383-.631 1.778-.99.396-.359 1.19-.653 1.764-.653.575-.001 1.402-.008 1.839-.017.436-.01 1.792.014 3.012.051s3.445-.221 4.944-.574c2.053-.484 2.93-.55 3.547-.268.495.225 1.017.249 1.317.059.58-.367 6.79-.44 7.146-.085.682.682 6.52-.22 7.666-1.183.672-.565 1.461-.602 1.97-.094.83.83 5.216.008 11.22-2.104 2.576-.906 4.958-.979 5.414-.164.426.762 2.59 1.485 3.445 1.151.626-.245 1.978-.162 3.94.24 1.018.209 1.06 1.5.087 2.622-1.056 1.217-.633 1.223 1.325.018.965-.594 2.217-1.08 2.783-1.08.566 0 1.362-.232 1.769-.518 1.05-.735 3.502-1.494 5.767-1.784 1.067-.136 2.228-.4 2.58-.584.423-.223.798-.206 1.105.05.257.212 2.032.414 3.947.449 2.97.053 3.753-.058 5.345-.764l1.866-.827.803.755c.965.906 1.068.91 4.122.173 2.267-.547 2.484-.544 3.717.04.72.343 1.644.61 2.053.593 5.402-.213 11.801-.871 12.421-1.278.843-.552 1.633-.101 1.308.746-.156.405.245.452 2.26.265 2.54-.236 3.98.15 3.98 1.065 0 .502 2.611 1.087 3.207.719.366-.226 3.361 1.102 3.692 1.637.11.177.976.322 1.926.322 1.958 0 3.523.582 3.523 1.311 0 .648-2.999 1.948-6.574 2.85-4.008 1.01-6.479 2.122-6.479 2.914 0 .73-.432.89-3.288 1.215-1.13.129-2.62.47-3.312.76l-1.259.526 1.02.53c.794.413 2.53.538 7.898.57l6.879.043 4.233-1.687c19.542-7.785 39.2-21.707 51.854-36.725 8.97-10.644 13.698-21.571 15.944-36.845.814-5.531.814-16.381 0-21.913-1.268-8.626-3.565-16.568-6.573-22.733-3.625-7.428-8.355-13.789-15.89-21.366-4.477-4.503-11.547-10.321-12.225-10.061-.65.249-2.243-.38-2.243-.885 0-.541-3.494-3.848-4.066-3.848-.28 0-.383.27-.27.705.162.617.011.706-1.2.706-1.572 0-2.827-.722-2.415-1.39.176-.284.72-.367 1.553-.237l1.283.2-1.473-.672c-1.143-.522-1.433-.824-1.296-1.35.173-.662-.169-.889-2.468-1.635-.358-.116-.726-.5-.819-.853-.518-1.983-18.31-10.279-29.56-13.783L270.251.353H82.272l-3.568 1.094c-5.645 1.732-15.795 5.845-21.356 8.654-5.613 2.836-7.114 3.263-2.361.672C60.8 7.604 73.387 2.469 79.57.745L82.238 0h187.94l2.669.745c6.741 1.88 19.19 7.037 25.599 10.605 6.823 3.798 16.41 10.396 22.918 15.774 13.33 11.015 22.788 23.47 26.599 35.03 3.26 9.892 4.458 17.267 4.458 27.452 0 8.728-.483 12.557-2.665 21.108-2.134 8.366-4.554 13.829-9.247 20.872-8.887 13.34-29.392 30.208-47.002 38.666-7.94 3.814-18.834 7.915-20.931 7.88-1.257-.021-1.239-.04.646-.632l1.94-.61-4.752.097c-4.25.087-4.903.019-6.174-.642-1.622-.843-1.926-1.205-1.71-2.034.191-.73 4.034-2.155 5.808-2.155.778 0 1.36-.196 1.475-.495.299-.778 4.337-2.584 7.862-3.517 1.768-.467 3.594-1.066 4.057-1.33.797-.453.738-.485-1.093-.588-1.065-.06-2.176-.319-2.47-.574-.69-.602-2.575-1.185-4.653-1.442-.908-.112-2.045-.513-2.525-.891-.679-.534-1.43-.688-3.356-.688-1.364 0-2.58-.159-2.7-.353-.274-.445-8.913-.114-11.04.424-1.463.37-3.881-.035-4.777-.799-.163-.139-1.195-.037-2.293.225-2.814.673-4.072.624-4.806-.188-.62-.684-.642-.682-2.361.19-1.624.822-1.993.868-5.692.707-2.175-.095-4.114-.191-4.308-.214-1.894-.223-7.24 1.02-8.29 1.927-.291.252-1.167.538-1.946.636-.779.098-2.2.674-3.156 1.28-1.764 1.12-2.797 1.34-3.672.786-.747-.472-.007-2.235 1.18-2.814.9-.438.935-.52.367-.838-.347-.194-1.488-.264-2.537-.156-2.012.208-3.842-.309-4.683-1.322-.56-.675-2.184-.708-3.668-.074-1.504.642-3.097 1.12-6.149 1.84-1.412.334-2.652.743-2.755.91-.27.438-1.881.344-3.401-.198-1.029-.367-1.394-.377-1.672-.042-.706.85-7.884 1.923-8.306 1.24-.258-.418-6.13-.341-6.392.084-.258.417-1.697.332-2.157-.128-.304-.304-.956-.248-2.628.226-1.223.346-3.732.695-5.575.775-4.24.184-4.345.185-4.766.071-.564-.153-2.995 1.474-2.995 2.004 0 .878-2.259 1.734-5.997 2.273-1.068.154-2.576.526-3.352.827l-1.41.548 1.596.015c1.805.018 3.465.916 2.842 1.539-.495.494-6.895 1.315-10.083 1.292-1.359-.01-3.283.198-4.276.46-1.088.288-2.116.364-2.586.19-.428-.158-2.631-.523-4.896-.81-8.018-1.017-10.644-1.713-10.644-2.825 0-.307-.238-.65-.529-.76-.29-.113-.53-.425-.53-.695 0-.358.505-.492 1.853-.492 1.881 0 4.85-.907 5.647-1.725.352-.36.099-.76-1.278-2.014-1.934-1.762-5.163-3.492-5.163-2.765 0 .246.635.95 1.411 1.565 1.674 1.326 1.844 2.359.441 2.675-.533.12-1.525.348-2.204.507-.68.159-2.981.196-5.116.082-3.563-.19-7.235-.236-10.435-.13-1.051.034-1.258.168-1.234.796.026.716-.117.75-2.81.685-1.56-.038-3.782-.229-4.938-.423-1.156-.194-2.5-.344-2.984-.332-.485.012-3.819.08-7.408.152-7.09.142-9.525.425-9.525 1.107 0 .242-.516.655-1.147.917l-1.147.476 1.412.252a24.2 24.2 0 0 0 2.998.291c2.515.064 4.057.725 4.057 1.74 0 1.066.897 1.341 5.412 1.663 2.317.165 3.35.38 3.483.724.103.27.09.589-.03.71-.121.12-2.006.202-4.19.183-2.516-.023-3.711.076-3.264.27.579.25.484.31-.529.327-.679.011-2.98-.593-5.115-1.343zm3.635-.754c-.328-.197-1.598-.564-2.822-.816-1.63-.336-2.213-.607-2.182-1.012.031-.404-.411-.614-1.63-.776-1.67-.221-2.822-.022-2.822.488 0 .61 5.496 2.303 7.748 2.387 1.685.063 2.145-.01 1.708-.271zm60.917-2.803c.241-.39-1.215-.839-2.141-.66-.34.066-.682.319-.763.561-.178.535 2.577.628 2.904.099zm-23.365-5.536a1.36 1.36 0 0 0-.882 0c-.243.098-.044.178.441.178s.683-.08.441-.178zm1.328-1.867c-.961-.739-1.263-.692-.942.145.115.3.571.541 1.014.537l.805-.008zm.5-4.087c.574-.874.57-.885-.135-.444-.398.248-.723.651-.723.896 0 .655.204.548.859-.452zm-10.319-12.686c-1.26-1.06-1.475-1.09-1.475-.202 0 .658.54.958 1.88 1.043.5.032.409-.156-.405-.84zm-2.846-1.8c.501-.454.545-.695.221-1.213-.4-.64-.316-.964.828-3.228.225-.444.122-.654-.403-.82-.388-.124-.96-.613-1.271-1.089-.526-.802-.52-.915.08-1.578.742-.82.821-1.926.218-3.037-.716-1.318-.525-1.875.641-1.875.975 0 1.053-.09.97-1.127-.082-1.031.003-1.133.992-1.19 1.574-.092 2.53-.46 2.76-1.062.238-.617-.399-1.879-1.284-2.546-.606-.457-.872-1.84-.353-1.832.146.002 1.009.229 1.917.505 1.842.559 1.937.508 2.91-1.568a73.527 73.527 0 0 1 1.64-3.175c.813-1.484 1.013-2.211.852-3.095-.285-1.568.826-3.075 2.946-3.997 2.751-1.195 3.326-1.53 3.58-2.08.135-.29.442-.906.684-1.368.24-.46.52-2.366.621-4.233.183-3.378.192-3.407 1.958-6.014 1.339-1.977 1.774-2.94 1.774-3.925 0-1.57-.282-2.099-1.12-2.099-.347 0-.933-.333-1.302-.741-1.084-1.199-2.44-1.724-4.78-1.851-1.71-.093-2.243-.257-2.413-.742-.308-.879-2.27-1.667-2.814-1.13-.315.309-.525.258-.87-.21-.252-.34-.607-.617-.791-.617-.185 0-.637-.221-1.007-.491-.555-.406-.594-.585-.223-1.031.298-.36.34-.755.127-1.185-.177-.355-.617-1.257-.978-2.005-.732-1.515-1.796-2.09-3.76-2.035-1.022.03-1.53-.19-2.293-.994-3.67-3.867-3.816-3.95-7.276-4.106-1.763-.08-2.533-.27-2.85-.7-.58-.795-2.081-.368-1.802.51.106.335-.03.912-.3 1.282-.738 1.01-1.767.075-1.483-1.345.167-.837.102-.988-.351-.814a4.108 4.108 0 0 1-1.227.214c-.416 0-.752.326-.886.863-.23.918-1.526 1.959-2.44 1.959-.48 0-.49.122-.073.97.262.534.5 1.689.527 2.567.042 1.35-.162 1.877-1.32 3.408-2.098 2.771-2.286 3.227-1.749 4.23.394.736.364 1.034-.213 2.105-.633 1.175-.637 1.3-.082 2.185.324.517 1.031 1.706 1.572 2.644.54.938 1.498 2.584 2.129 3.659.63 1.074 1.146 2.164 1.146 2.422 0 .521 1.688 1.879 3.434 2.762.627.317 1.607 1.032 2.177 1.59 1.205 1.178 1.357 1.99 1.63 8.676.103 2.522.279 5.062.392 5.644.112.582.327 2.805.477 4.94.15 2.134.443 4.594.652 5.467.209.873.387 1.688.395 1.811.009.123.323.304.698.402.823.215 1.393 2.556.773 3.176-.578.578-.486 1.557.17 1.809.404.155.503.47.344 1.103-.357 1.42 1.403 4.06 3.453 5.178 1.37.748 1.276.745 2.026.067zM79.827 76.462c.057-1.017.137-2.325.177-2.907l.073-1.059-2.054.11c-2.616.141-3.258-.295-2.523-1.715.286-.553.52-1.232.52-1.509 0-.277.22-.686.49-.91.763-.634.944-2.15.255-2.144-.826.008-1.322.416-1.605 1.321-.48 1.542-3.802 2.545-5.507 1.664-.787-.407-1.155-.98-1.589-2.472-.588-2.024-.475-3.435.414-5.175.267-.524.486-1.257.486-1.628 0-1.077 1.197-2.312 3.23-3.332 1.674-.84 2.058-.905 3.426-.592 1.304.299 1.608.262 1.977-.243.373-.51.84-.563 3.222-.364 3.126.262 3.816.751 3.559 2.525-.084.583-.006 1.45.174 1.929.551 1.463.9.21.72-2.59l-.164-2.561 1.888-1.652c1.038-.909 2.013-1.652 2.166-1.652.153 0 .92-.406 1.707-.902 1.293-.817 1.421-1.027 1.34-2.205-.12-1.714.499-2.78 1.774-3.06.57-.125 1.288-.613 1.596-1.084.375-.573 1.028-.931 1.969-1.082 1.043-.166 1.521-.46 1.846-1.136.241-.502.835-1.095 1.32-1.318a276.39 276.39 0 0 0 2.47-1.16c.873-.415 2.019-.754 2.546-.754.705 0 .906-.138.758-.524-.11-.288-.035-1.003.17-1.587.203-.585.297-1.063.208-1.063-.454 0-3.349 1.539-3.707 1.97-.512.617-2.097.661-2.079.059.015-.48 2.151-2.103 4.394-3.336 1.123-.618 2.008-.781 4.304-.794 1.589-.009 2.98-.162 3.09-.341.111-.18.984-.586 1.94-.903.955-.318 1.801-.766 1.88-.997.168-.489-.738-2.008-1.198-2.008-.77 0-1.779-1.493-1.57-2.324.117-.468.117-1.234 0-1.702l-.214-.85-1.253.85c-1.44.977-1.786 1.02-2.697.329-.447-.339-.596-.763-.462-1.312.31-1.272-.562-2.107-2.348-2.248-1.45-.114-1.604-.045-1.993.895-.233.56-.726 1.294-1.096 1.629-.37.335-.673 1.025-.673 1.534 0 1.289-.772 2.257-2.375 2.98-.988.445-1.558 1.027-2.054 2.094-.378.812-1.132 1.715-1.677 2.006-.916.49-1.03.476-1.526-.177-.367-.481-.478-1.157-.35-2.129.18-1.381.145-1.441-1.208-2.027-.766-.332-1.394-.754-1.394-.937 0-.183-.674-.468-1.499-.632-1.153-.229-1.5-.457-1.5-.99 0-.381-.136-.905-.303-1.165-.503-.779 1.73-2.721 5.131-4.462 1.711-.876 3.357-1.592 3.658-1.592.803 0 3.327-1.52 3.33-2.004.002-.228-.269-.687-.6-1.019-.845-.844-.93-1.923-.196-2.48.564-.428.567-.473.034-.483-1.178-.023-1.705.419-1.705 1.43 0 .825-.259 1.146-1.397 1.726-1.473.752-2.483.917-2.483.407 0-.168-.616-.192-1.37-.055-1.543.283-3.48.085-3.77-.385-.297-.48-1.555-.37-2.108.182-.351.351-1.201.465-2.942.392-2.47-.102-3.369-.354-3.058-.856.289-.468-2.201-1.032-3.68-.833-.776.104-1.61.036-1.854-.15-.543-.414-2.445-.341-5.798.221-2.097.352-2.792.338-4.057-.081-.839-.279-2.733-.611-4.21-.74-1.475-.127-3.19-.377-3.81-.555-1.393-.4-5.599.306-8.839 1.482-1.799.653-2.323 1.011-2.484 1.694-.113.476-.528 1.027-.924 1.225-.395.197-.658.538-.585.757.198.596-1.973 1.78-3.78 2.061-.874.137-2.26.635-3.083 1.108-1.34.772-1.45.932-1.061 1.554.434.695.841.823 2.261.71.442-.034.814.173.882.491.101.469.302.435 1.353-.227.68-.428 2.326-1.225 3.659-1.772 1.854-.76 2.537-.9 2.906-.594.265.22.735.303 1.044.184.31-.118.902.023 1.318.314.415.29 1.283.529 1.928.529.787 0 1.433.28 1.962.851.434.468 1.26.905 1.835.97 1.155.131 1.144.074.694 3.647-.147 1.164-.268 2.355-.27 2.646a1.782 1.782 0 0 1-.32.934c-.208.264.053.811.753 1.578 1.242 1.36 1.251 1.409.516 2.831-.407.786-.74 1.027-1.24.896-.46-.12-.81.07-1.073.584-.215.419-.974 1.476-1.687 2.349-2.564 3.138-2.979 4.14-2.908 7.034.061 2.53.11 2.666 1.336 3.79.968.887 1.233 1.371 1.107 2.027-.09.474-.032 1.07.13 1.325.224.354.295.322.3-.132.007-.844.507-1.051 1.563-.65.722.275.912.587.916 1.502.003.635.23 1.552.504 2.037.274.485.779 1.438 1.122 2.117.344.68 1.17 2.066 1.837 3.082 1.024 1.562 1.183 2.067 1.023 3.26-.167 1.247-.067 1.517.853 2.29.573.483 2.228 1.44 3.678 2.129 2.186 1.037 2.761 1.182 3.378.853.885-.474 2.29.042 3.042 1.117.556.793 2.708 1.793 3.896 1.81.558.007 1.09.443 1.676 1.371.472.748.858 1.514.858 1.702 0 .189.278.504.618.702.34.198.617.363.617.368zm-24.845-17.37c-.112-.29-.362-.428-.556-.308-.218.134-.17.335.125.522.642.407.664.396.43-.213zm.571-3.264c-.004-.706-.09-.835-.32-.473-.173.273-.233.71-.133.97.286.746.46.556.453-.497zm61.036-19.832c0-.187-.337-.52-.75-.741-.57-.306-.949-.295-1.587.047-1.269.679-1.011 1.035.75 1.035.873 0 1.587-.154 1.587-.34zm-19.31-4.51c.305-.34.607-1.079.672-1.643.096-.835.374-1.113 1.505-1.503 2.02-.696 2.74-1.46 2.483-2.63-.17-.78-.035-1.085.693-1.562.497-.326.905-.774.905-.996 0-.662-1.357-1.306-2.269-1.078-.634.16-.948.027-1.243-.523-.216-.405-.626-.737-.91-.737-.285 0-.517-.17-.517-.376 0-.446-1.338-.1-2.117.547-.291.242-.926.535-1.411.65-.485.115-1.614.675-2.51 1.243-1.389.883-1.62 1.194-1.587 2.13.027.745.218 1.097.594 1.097.305 0 1.179.473 1.94 1.05.864.653 1.819 1.052 2.533 1.058 1.265.01 1.401.402.617 1.774-.563.985-.686 2.116-.23 2.116.163 0 .547-.278.852-.617zm-62.017-4.78c1.818-.648 1.986-.78 1.235-.963-.563-.138-.834-.423-.767-.807.167-.954-.4-.708-2.792 1.212-2.184 1.754-2.214 1.8-1.015 1.557.679-.137 2.182-.587 3.34-1zm95.766-4.352c.402-.51.73-1.146.73-1.41 0-.266.159-.482.353-.482.193 0 .99-.578 1.773-1.284 1.028-.93 2.02-1.423 3.593-1.786 1.195-.276 2.615-.817 3.156-1.203.54-.385 1.876-.845 2.968-1.023 2.866-.466 3.101-.58 3.622-1.756.258-.584.695-1.062.97-1.062.274 0 .5-.238.5-.53a.53.53 0 0 1 .528-.529c.291 0 .53-.158.53-.352 0-.194.29-.353.643-.353.908 0 2.25-1.52 1.976-2.235-.147-.382.002-.66.43-.812 1.427-.503 2.61-2.874 1.213-2.43-.371.117-.778.049-.902-.153-.125-.202-1.175-.367-2.334-.367-1.603 0-2.159-.135-2.323-.563-.185-.483-.669-.529-3.428-.322-1.976.149-3.354.42-3.58.706-.255.322-.794.392-1.764.23-1.483-.249-8.322.069-10.393.482-.679.136-1.42.482-1.648.769-.227.287-1.041.605-1.808.708-1.152.155-1.365.303-1.221.852.132.508.498.665 1.543.665 1.626 0 2.756.95 2.835 2.382.03.533.071 1.163.092 1.399.022.235.338.647.704.915 1.115.815.484 2.227-1.386 3.106-.869.408-1.593.924-1.609 1.145-.016.221-.072.878-.126 1.46-.166 1.803.57 3.704 1.432 3.704.414 0 .95.239 1.192.53.61.735.897.669 1.739-.4zm-18.212-2.267c.181-.693.243-.702 1.256-.178 1.215.628 1.83.17.951-.709-1.419-1.42.434-3.08 1.927-1.728.588.532 1.755.385 1.755-.22 0-.171-.584-.59-1.297-.932-1.585-.757-1.8-1.267-.741-1.758l.803-.373-.993-.39c-.546-.216-1.283-.392-1.638-.392-.354 0-.738-.243-.852-.54-.157-.41-.657-.517-2.066-.441-1.605.085-1.845.015-1.755-.518.125-.748.026-.755-1.519-.11-.72.301-1.299.373-1.42.177-.29-.468-1.333-.412-2.03.11-1.206.9-.143 1.434 3.03 1.52 2.87.076 3.036.126 4.089 1.228.604.631 1.097 1.272 1.097 1.423 0 .151-.436.6-.97.998-2.125 1.585-2.203 1.738-1.369 2.69.924 1.055 1.491 1.101 1.742.143zm-10.859-.968c-.108-.109-.393 0-.632.24-.346.349-.305.39.197.198.348-.133.544-.33.435-.438zm2.856-2.544c.567-.198 1.227-.674 1.467-1.059.38-.607.346-.699-.251-.699-.378 0-.794.172-.924.382-.13.21-.734.685-1.343 1.057-1.207.735-.639.908 1.051.319zm-10.45-1.394c0-.188-.238-.25-.529-.139-.29.112-.529.266-.529.342 0 .076.238.139.53.139.29 0 .528-.154.528-.342zm9.485-.331c.388-.246.328-.396-.296-.73-.609-.325-.734-.617-.561-1.307.16-.638.094-.844-.234-.735-.654.218-.775 1.285-.255 2.256.492.92.627.971 1.346.516zm-17.863-.266a1.36 1.36 0 0 0-.882 0c-.243.097-.044.177.44.177.486 0 .684-.08.442-.177zm4.433-.255c2.109-.037 2.358-.116 2.358-.747 0-.388.128-.904.285-1.146.165-.255.128-.441-.088-.441-.205 0-.374.148-.374.329 0 .563-1.473.847-1.783.344-.17-.275-1.22-.52-2.602-.608-1.89-.12-2.317-.05-2.317.382 0 .29.331.616.737.722.557.145.68.37.506.92-.182.575-.11.682.345.508.316-.122 1.637-.24 2.933-.263zm-7.858-.24c.363-.589-.07-.79-1.126-.525-.758.19-.857.314-.458.566.684.433 1.3.417 1.584-.042zm13.836-.623c.332-.211.236-.478-.382-1.059-.813-.764-.835-.766-1.44-.097-.585.647-.584.697.028 1.053.777.452 1.205.476 1.794.103zm-13.885-1.383c.143-.145 1.003-.53 1.911-.854l1.651-.59-1.302-.028c-.716-.015-1.403.136-1.526.336-.124.2-.728.583-1.344.853-.887.388-.967.496-.385.519.405.016.852-.09.995-.236zm16.438-.479c0-.507-.612-.361-.826.197-.13.341-.026.446.315.315.281-.108.511-.338.511-.512zm-7.627-.994c-.8-.13-1.885-.52-2.412-.866-1.23-.806-1.612-.455-.506.466.612.51 1.33.694 2.608.67l1.764-.032zm16.02-1.577c-.47-.507-.984-.424-.984.16 0 .183.324.332.72.332.597 0 .642-.083.264-.492zm10.084-2.36c.946-.274 1.797-.697 1.89-.94.098-.254.79-.441 1.632-.442.803-.001 2.493-.306 3.754-.679l2.293-.677-2.858-.027c-1.573-.015-3.863.078-5.091.206-1.87.196-2.093.286-1.375.554.835.311.84.333.173.825-.377.277-1.027.505-1.445.505-.902 0-2.986.982-2.986 1.407 0 .531.865.639 1.588.198.388-.237 1.48-.655 2.425-.93zm-5.865-.545c1.21-.324.947-.836-.43-.836-.942 0-1.177.122-1.02.53.226.59.32.61 1.45.306zm.755 141.31c-.754-.467-.144-1.517 1.062-1.83 1.333-.345 2.412.315 2.05 1.255-.21.55-2.475.968-3.112.574zm109.24-2.771c-.34-.551.454-1.792 1.143-1.786 1.841.016 2.017 1.865.194 2.043-.611.06-1.212-.056-1.337-.257zm87.364-3.4c-1.013-.426-1.113-.58-.781-1.199.208-.39 1.764-1.37 3.457-2.178 1.692-.807 3.782-2.006 4.644-2.664 1.258-.96 1.77-1.152 2.593-.97.914.2 1 .146.796-.497-.168-.532.004-.875.657-1.302 1.065-.698 1.403-1.619 1.309-3.561-.13-2.676 1.727-2.094 2.228.697.199 1.108.367 1.326.914 1.183.368-.096.85.043 1.071.31.315.378.176.697-.633 1.462-1.672 1.581-4.719 3.625-5.404 3.625-.349 0-1.362.555-2.252 1.234-.89.68-1.818 1.235-2.063 1.235-.245 0-1.03.481-1.742 1.069-2.078 1.713-3.4 2.142-4.794 1.556zm3.04-1.634c.688-.425 1.075-.831.862-.902-.394-.132-3.264 1.193-3.264 1.506 0 .418 1.26.101 2.402-.604zm11.244-7.868c-.29-.31-.586-.175-1.195.549-1.204 1.43-.98 1.907.386.818.884-.705 1.095-1.061.81-1.367zm-31.396 6.038c-.22-.574.28-3.007.7-3.403.161-.15 1.126-.19 2.145-.088 2.28.23 2.371.719.482 2.608-1.409 1.409-2.967 1.822-3.327.883zm2.386-1.397c.622-.455.622-.482.007-.718-.378-.145-.756-.06-.926.208-.65 1.024-.158 1.297.919.51zm.55-3.399c-.29-.183-.862-.248-1.273-.145-.924.232-3.302-.722-3.355-1.346a9.347 9.347 0 0 1 .017-1.192c.043-.552-.297-.872-1.372-1.295-1.427-.56-1.553-.718-1.914-2.387-.337-1.56-1.942-1.864-5.299-1.004-1.572.402-3.186 1.032-3.587 1.4-.503.462-1.265.672-2.47.68-.957.008-2.137.24-2.622.517-1.177.673-2.653.657-3.717-.04-1.051-.69-1.066-.86-.167-1.897.63-.726.699-1.289.662-5.434-.061-6.971.445-7.766 5.99-9.4 2.616-.772 3.103-1.118 3.749-2.663.263-.63.85-1.343 1.302-1.583.453-.24 1.141-.79 1.53-1.22 1.403-1.559 3.396-2.062 3.987-1.007.268.48.446.384 1.142-.617 1.002-1.442 2.797-3.13 3.312-3.115.208.006.686.244 1.063.53.376.284 1.294.517 2.04.517 1.751 0 1.966.612.81 2.315-.853 1.258-.872 1.37-.284 1.69.346.187 1.078.713 1.627 1.167.548.454 1.141.825 1.318.825.44 0 1.224-1.974 1.518-3.83.303-1.91 1.14-3.578 1.796-3.578.51 0 .665.348 1.09 2.447.134.667.537 1.461.895 1.764.467.395.692 1.176.795 2.759.122 1.851.29 2.321 1.044 2.915.495.389 1 1.168 1.124 1.731.124.564.454 1.113.733 1.22.28.107.507.459.507.781 0 .323.333 1.124.738 1.781 1.541 2.493-.09 6.971-3.907 10.73-1.15 1.133-2.497 2.702-2.993 3.488-.57.903-1.165 1.428-1.617 1.428-.393 0-1.338.318-2.098.706-1.6.816-1.44.789-2.114.362zm-1.238-1.42c.29-.47 1.848-.453 2.007.02.08.242.497.18 1.175-.173.579-.302 1.31-.55 1.627-.55.317-.002 1.024-.598 1.571-1.326.548-.727 1.888-2.275 2.979-3.44 3.627-3.871 5.005-7.553 3.53-9.429-.395-.502-.718-1.148-.718-1.436 0-.288-.238-.616-.529-.727-.291-.112-.53-.534-.53-.937 0-.404-.555-1.307-1.234-2.006-.995-1.025-1.245-1.568-1.287-2.805-.083-2.383-.087-2.4-.741-2.668-.393-.161-.618-.635-.618-1.302 0-1.567-.638-1.66-.886-.13-.542 3.332-1.92 5.484-3.09 4.824-.238-.134-1.267-.875-2.285-1.646-1.83-1.386-2.23-2.208-1.453-2.986.577-.577.13-1.431-.819-1.57-1.542-.224-3.23.622-3.93 1.97-.73 1.406-1.7 1.65-2.758.694-.581-.527-.709-.528-1.487-.018-.468.306-1.2 1.121-1.625 1.81-.452.73-1.056 1.253-1.451 1.253-.372 0-.677.2-.677.444 0 .944-1.781 2.317-3.77 2.905-5.19 1.534-5.683 2.253-5.578 8.116.071 4.012-.304 6.527-.974 6.527-.167 0-.205.158-.085.352.329.532 1.682.424 2.581-.205.443-.31 1.509-.559 2.4-.559 1.106 0 1.985-.26 2.843-.843.684-.464 1.822-.94 2.53-1.056.709-.117 1.748-.36 2.31-.539 1.525-.485 2.392-.402 4.027.388.996.481 1.477.942 1.477 1.411 0 .846.605.898 1.459.126.834-.755 1.842-.38 1.54.574-.125.39-.116 1.595.02 2.675.192 1.541.406 2.03.994 2.267 1.01.408 1.2.407 1.455-.005zm-113.948-3.616c-.658-.566-.928-1.149-.941-2.029-.01-.717-.567-2.27-1.327-3.704-1.324-2.499-2.14-5.043-2.14-6.672 0-.49-.302-1.491-.671-2.225-.906-1.8-1.697-3.642-1.96-4.564-.286-.996.421-3.865 1.322-5.367.61-1.018.654-1.353.305-2.318-.224-.621-.408-1.51-.408-1.974 0-1.35-1.085-3.926-2.298-5.455-1.424-1.794-2.022-2.925-1.767-3.338.11-.18.365-1.21.565-2.292.456-2.468-.035-3.176-1.954-2.816-1.121.21-1.296.13-1.86-.862-.524-.921-.835-1.095-1.96-1.097-.735 0-1.99.33-2.787.738-1.16.592-1.81.694-3.257.513-1.278-.16-2.196-.063-3.13.327-1.057.442-1.482.469-2.109.135-1.482-.787-4.779-3.882-4.977-4.672-.11-.435-.917-1.551-1.796-2.481-.985-1.043-1.597-2.018-1.597-2.541 0-.468-.192-1.156-.426-1.531-.348-.558-.312-.805.198-1.37.804-.888 1.172-4.272.611-5.625-.43-1.038-.295-1.403 2.086-5.68.664-1.194 2.484-3.215 2.895-3.215.17 0 .778-.347 1.353-.772.733-.542 1.044-1.072 1.044-1.781 0-1.38.813-2.841 1.908-3.427 1.065-.57 2.094-2.005 1.79-2.497-.117-.188-.68-.342-1.25-.342-.847 0-1.037-.149-1.037-.812 0-.446-.167-.978-.371-1.182-.26-.26-.195-.812.216-1.838.323-.806.515-1.954.428-2.55-.245-1.669.816-2.18 4.213-2.03l2.746.121.11-1.322c.098-1.19-.017-1.396-1.147-2.063-1.865-1.1-1.57-2.436.536-2.436.373 0 .677-.169.677-.376 0-.208-.316-.287-.705-.176l-1.382.39c-.924.261-1.266-.434-.717-1.458.608-1.138.27-1.369-1.024-.7-1.458.754-3.096.219-2.536-.828.202-.377.367-1 .367-1.386 0-.72 1.933-2.168 2.893-2.168.339 0 .517-.364.517-1.054 0-1.456 1.015-2.474 2.465-2.474.814 0 1.18.164 1.18.53 0 .29.178.528.394.528.242 0 .32.376.201.97-.192.965 1.01 3.254 2.197 4.183.276.216.399.648.275.97-.433 1.13.82.508 1.473-.73.243-.463.986-.938 1.816-1.161 1.287-.346 1.406-.479 1.406-1.57 0-.656.083-1.41.185-1.675.117-.306-.087-.503-.558-.538-1.345-.102-1.744-.77-1.744-2.92v-2.033l2.28-1.134c1.29-.641 2.928-1.836 3.774-2.754 1.905-2.068 5.015-3.955 6.516-3.955.63 0 1.232-.138 1.336-.306.104-.169.996-.414 1.983-.544 1.502-.2 2.103-.092 3.69.659 1.043.493 2.094.897 2.336.897 1.26 0 4.665 1.263 5.348 1.983 1.058 1.117 1.414 1.048 1.135-.22-.206-.94-.14-1.058.59-1.056.452.001 1.293.248 1.869.549.969.505 1.2.49 3.089-.199 1.122-.409 2.238-.622 2.48-.473.661.41 2.476.129 3.167-.49.471-.42 1.057-.493 2.547-.318 1.623.19 1.904.143 1.736-.294-.278-.725.633-2.65 1.277-2.696 1.092-.08 2.308.118 2.702.44.266.218.459.177.557-.118.119-.355.344-.363 1.057-.038 1.042.474 2.39.236 2.39-.422 0-.47 1.066-.869 2.343-.877.416-.003.838-.218.938-.479.198-.516 3.493-1.29 5.49-1.29 2.125 0 .684-.832-2.22-1.283-2.744-.425-4.62-1.133-4.548-1.715.025-.194.608-.545 1.298-.78 1.028-.35 1.588-.327 3.12.126 1.028.303 2.027.654 2.221.78.194.124.67.239 1.059.254 2.112.084 2.61.211 3.362.864.927.804 1.376.924 4.45 1.193 2.62.23 4.006.807 4.006 1.67 0 .89.86 1.038 6.588 1.126 4.694.073 5.039.127 6.332.993 1.218.817 1.62.898 3.692.747 2.21-.16 2.318-.21 2.168-.993-.132-.692-.365-.82-1.443-.795-1.863.043-3.226-.6-3.226-1.523 0-.742.086-.757 2.91-.526 6.503.534 7.154.613 7.447.906.579.579-.171 1.073-1.647 1.086-1.46.012-1.467.018-.596.516.485.277 1.596.512 2.47.521.872.01 2.593.333 3.823.718 1.288.404 3.233.702 4.586.704 1.422 0 2.76.216 3.387.543 1.142.595 7.253.916 7.253.38 0-.17.913-.208 2.03-.081 1.88.212 2.056.17 2.384-.572.276-.624.616-.79 1.536-.746 1.51.072 2.231.74 1.391 1.289-.485.316.174.603 3.528 1.533 2.268.63 4.507 1.152 4.975 1.162.468.01 1.684.28 2.702.6 1.707.539 1.862.679 1.993 1.801.183 1.57-.274 1.733-2.848 1.01-1.121-.314-2.425-.565-2.897-.557-.83.013-.824.033.2.573 2.303 1.217 2.783 2.235 1.053 2.235-1.307 0-2.638.746-2.852 1.598-.17.68-.422.77-2.102.745-1.172-.017-2.08.155-2.355.446-.362.383-.36.506.007.64.975.357 2.544 1.96 2.544 2.6 0 .37.15.673.333.673.274 0 .285 2.207.014 2.823-.043.097-.053.312-.024.477.122.681-.406 1.64-.904 1.64-.71 0-5.707-4.51-6.333-5.716-.554-1.068-.656-2.399-.184-2.399.17 0 .478-.674.685-1.499.313-1.254.3-1.398-.085-.882-.574.773-.935.773-2.277.002-.884-.507-1.152-.533-1.528-.152-.374.378-.337.55.205.95.364.27.574.716.468.993-.25.65-2.575.926-3.354.399-.396-.268-1.546-.335-3.402-.196-2.655.198-2.836.265-3.403 1.267-.329.582-.698 1.396-.821 1.808-.285.956.541 1.248 3.719 1.317l2.335.05 2.957 2.958c2.512 2.514 2.87 3.014 2.382 3.323-.504.32-.447.47.468 1.24.685.577.983 1.103.87 1.536-.194.74 1.286 1.674 2.29 1.445.32-.074.828.217 1.128.645.503.718.485.855-.23 1.763-.428.542-.99.995-1.25 1.005-.303.013-.136.419.468 1.136.574.683.87 1.38.762 1.792-.097.372.05 1.318.327 2.103.277.785.504 1.555.504 1.71 0 .57-1.13 1.393-1.911 1.393-.441 0-1.09.318-1.443.708-.352.39-.814.686-1.025.66-.797-.1-2.677.926-2.677 1.46 0 .915-.724 1.42-1.465 1.023-.359-.191-.652-.531-.652-.754 0-.223-.346-.775-.77-1.225-.759-.809-.76-.827-.087-1.471a25.777 25.777 0 0 0 1.472-1.585c.532-.626 1.14-.933 1.852-.933.897 0 1.061-.137 1.061-.882 0-.695.179-.882.844-.882 1.573 0 1.405-1.237-.667-4.916-.327-.58-.377-1.06-.154-1.477.414-.773.048-1.765-1.487-4.032l-1.182-1.746-.215 1.94c-.377 3.395-1.681 5.578-3.07 5.137-.762-.242-1.672.613-1.297 1.22.133.215-.031.692-.365 1.061-.58.64-.556.712.51 1.61 1.264 1.063 2.58 3.397 2.312 4.098-.28.728-2.301 1.5-2.914 1.114-.288-.181-.79-1.01-1.115-1.843-.325-.832-.74-1.516-.923-1.521-.83-.022-1.566-.746-1.566-1.54 0-.67-.182-.866-.794-.858-.436.006-1.09.237-1.454.512-.63.477-.619.511.25.729.501.126 1.101.458 1.334.739.344.414.214.69-.695 1.464l-1.119.955 1.83 2.065c1.007 1.136 1.857 2.327 1.89 2.646.034.32.275 1.029.537 1.577.377.791.387 1.138.046 1.683-.236.378-.75 1.543-1.14 2.589-.818 2.184-2.125 3.348-4.973 4.427-2.614.991-2.983 1.259-2.52 1.831.437.543.087 1.692-.72 2.362-1.254 1.04-2.97-.774-1.898-2.007.499-.574.461-1.474-.062-1.474-.542 0-1.8 1.47-1.8 2.102 0 .365.718 1.383 1.596 2.26 1.584 1.585 2.637 3.746 2.637 5.414 0 .6-.625 1.453-2.029 2.77-1.115 1.046-2.23 1.906-2.478 1.91-.247.004-.545-.469-.662-1.05-.116-.583-.419-1.06-.672-1.06-.254 0-.787-.456-1.184-1.015-.398-.558-1.03-1.095-1.403-1.193-.548-.143-.746.084-1.022 1.17-.26 1.026-.234 1.39.11 1.523.25.095.56.655.688 1.243.149.674.657 1.33 1.379 1.775 1.232.762 1.824 1.705 2.12 3.377.104.582.291 1.574.417 2.205.134.666.086 1.146-.114 1.146-.19 0-.268.397-.176.882.093.485.31.882.48.882.172 0 .312.219.312.486 0 .268.349.718.775 1 .629.418.76.808.694 2.072-.077 1.508-.037 1.573 1.254 2.032.734.26 1.992.454 2.797.43.895-.028 1.672.164 2.003.495.297.297.755.54 1.017.54.607 0 2.044.998 2.044 1.42 0 .82-1.343.98-3.896.466-1.447-.292-3.13-.582-3.74-.646-1.636-.171-2.497-.741-4.683-3.097-1.788-1.926-3.107-3.84-4.316-6.256-.242-.485-1.288-1.894-2.324-3.132-1.036-1.237-1.826-2.428-1.754-2.646.071-.218.654-.447 1.296-.51.954-.093 1.419.131 2.558 1.235l1.391 1.349-.257-1.411c-.303-1.666-1.094-2.999-1.778-2.999-.374 0-.489-.634-.489-2.698 0-1.877-.23-3.328-.756-4.771-.724-1.986-.784-2.049-1.413-1.48-.535.485-.818.52-1.537.193-.688-.314-.88-.664-.88-1.605 0-.885-.374-1.656-1.411-2.911-.776-.94-1.411-1.926-1.411-2.193 0-.276-.218-.402-.504-.292-.278.106-1.071.3-1.764.43-.693.13-1.26.4-1.26.6 0 .199-.953 1.282-2.117 2.408-1.164 1.125-2.116 2.188-2.116 2.363 0 .175-.38.49-.843.702-.79.36-.845.575-.868 3.376-.02 2.275.104 3.1.513 3.44 1.711 1.42 1.842 4.027.222 4.433-1.085.273-1.847-.578-1.847-2.062 0-1.142-.26-1.249-.91-.374-.559.75-1.505.31-2.154-1.005-1.794-3.63-2.227-4.586-2.227-4.92 0-.209-.385-1.204-.854-2.21-.47-1.007-1.055-2.716-1.3-3.798-.387-1.7-.547-1.948-1.183-1.826-.928.177-2.66-1.155-2.66-2.044 0-.383-.437-.897-1.016-1.196-.559-.29-1.102-.752-1.208-1.028-.145-.375-1.156-.547-4.012-.679-2.1-.097-4.216-.286-4.7-.42l-.883-.242.833.732c.458.403 1.018.733 1.245.733.563 0 1.627 1.293 1.627 1.978 0 .691-1.105 2.608-1.503 2.608-.16 0-.246.229-.189.509.146.715-2.683 3.269-3.923 3.541-.566.124-1.111.44-1.211.7-.18.467-5.039 3.01-5.752 3.01-.766 0-2.621 1.146-2.484 1.535.194.552 2.242.35 4.713-.466 1.114-.367 2.172-.578 2.351-.467.662.409-.077 4.005-1.38 6.717-1.019 2.122-1.985 3.41-4.3 5.735-3.933 3.948-4.116 4.163-4.97 5.87-.582 1.164-.687 1.847-.517 3.352.117 1.04.423 2.306.679 2.815.256.509.493 2.13.527 3.605.073 3.118-.384 4.088-2.42 5.135-.724.372-1.781 1.166-2.348 1.763-.925.973-.995 1.204-.678 2.237.194.633.282 1.759.196 2.5-.13 1.107-.366 1.448-1.318 1.902-.971.463-1.198.802-1.389 2.074-.162 1.08-.708 2.11-1.885 3.557-2.904 3.573-4.627 4.7-7.176 4.7-.76 0-1.952.239-2.649.53-1.559.651-1.321.677-2.416-.265zm2.094-.961c.497-.19 1.78-.425 2.852-.524 3.065-.284 3.804-.81 6.898-4.914.726-.963 1.034-1.775 1.034-2.727 0-1.231.132-1.423 1.444-2.092 1.4-.715 1.44-.783 1.278-2.212-.092-.811-.28-1.819-.42-2.238-.201-.609.058-1.06 1.28-2.228.843-.805 2.01-1.716 2.591-2.025.582-.308 1.252-.814 1.488-1.124.615-.806.565-5.03-.075-6.255-.29-.556-.528-1.44-.529-1.964 0-.525-.176-1.336-.389-1.803-.318-.698-.223-1.194.54-2.805.508-1.075 1.476-2.558 2.15-3.293.674-.736 1.225-1.452 1.225-1.592 0-.14.833-.913 1.852-1.72 1.019-.806 2.445-2.34 3.17-3.408 1.258-1.857 2.961-6.37 2.556-6.775-.106-.106-1.206.076-2.444.406s-2.634.6-3.102.6c-1.04 0-2.485-1.445-2.197-2.197.14-.363-.439-1.11-1.75-2.26-1.076-.944-1.959-1.888-1.961-2.097-.002-.21-.466-1.082-1.029-1.94-.563-.858-1.103-2.168-1.2-2.911-.096-.743-.508-1.706-.916-2.14-.407-.433-.74-.978-.74-1.21 0-.231-.732-1.774-1.626-3.428-.901-1.666-1.551-3.291-1.458-3.645.247-.946-.901-1.553-1.994-1.055-.637.29-1.164.29-2.003-.003-.626-.218-1.461-.397-1.856-.397s-1.407-.333-2.248-.74c-1.78-.862-2.574-.695-2.574.54 0 1.318-1.165 1.808-2.638 1.109-.645-.306-1.34-.556-1.546-.556-.206 0-.682-.331-1.06-.736-.376-.404-1.372-.89-2.213-1.078-.84-.19-1.808-.597-2.15-.907-.675-.61-.828-1.697-.286-2.032.19-.118.216-.537.059-.962-.233-.628-.54-.745-1.837-.7-4.189.149-6.05.456-7.763 1.282-1.556.75-2.042.833-3.275.556-1.176-.264-1.506-.222-1.754.22-.298.534-.61.825-2.282 2.137-.535.419-.885 1.156-1.017 2.14-.15 1.122-.504 1.766-1.401 2.554-.66.58-1.393 1.053-1.629 1.054-.542 0-2.369 2.263-2.369 2.936 0 .278-.247.71-.55.961-1.012.84-1.444 2.539-1.294 5.098.092 1.571-.037 2.992-.354 3.905-.674 1.944-.408 3.927.616 4.598.9.59 2.64 3.056 2.644 3.749.002.246.968 1.218 2.148 2.16 1.812 1.445 2.29 1.668 3.084 1.442.516-.147 1.97-.289 3.231-.315 1.32-.027 2.892-.31 3.704-.668.777-.341 2.064-.71 2.861-.82 1.345-.184 1.52-.107 2.4 1.048.873 1.143 1.042 1.22 2.067.925.986-.282 1.21-.206 1.909.648.926 1.131.94 1.265.427 4.209l-.39 2.24 1.423 1.845c1.433 1.858 2.55 4.472 2.747 6.432.059.582.214 1.59.344 2.24.177.88.042 1.529-.528 2.544-.421.75-.859 2.144-.972 3.1-.175 1.482-.036 2.093.946 4.158.634 1.332 1.37 3.66 1.636 5.174.342 1.942.899 3.483 1.892 5.235.948 1.673 1.407 2.913 1.407 3.803 0 1.856.282 2.07 1.916 1.448zm89.33-29.337c-.466-.272-.76-.269-1.04.01-.284.284-.107.387.651.379.913-.009.96-.057.39-.39zm-4.11-.659c-.691-.446-1.158-.446-.882 0 .12.194.486.35.814.348.514-.005.524-.053.068-.348zm-2.122-3.263c.005-.563-.27-.95-2.012-2.82-.315-.34-.471-.718-.347-.843.349-.348-1.14-2.246-1.763-2.246-.303 0-1.423-.88-2.49-1.954-1.066-1.075-2.015-1.879-2.108-1.785-.093.093.42.774 1.14 1.513.72.74 1.57 1.839 1.889 2.443 2.159 4.087 2.756 5.019 3.873 6.042 1.28 1.172 1.805 1.07 1.818-.35zm-3.077-10.088c-.366-.49-.87-.96-1.122-1.044-.668-.223-.132 1.956.808 3.283l.75 1.058.115-1.203c.074-.775-.122-1.52-.55-2.094zm-21.23-3.34c-.275-.275-.382-.132-.382.51 0 1.164.494 1.661.647.652.065-.429-.054-.952-.265-1.162zm-2.195-1.938c.572-.803.698-1.515.666-3.77-.032-2.332.064-2.84.6-3.154.35-.207 1.212-1.002 1.915-1.768a60.28 60.28 0 0 1 2.512-2.556c.68-.64 1.096-1.164.927-1.165-.816-.004.668-1.016 1.802-1.23.711-.133 1.464-.475 1.673-.76.567-.777 1.527-.234 2.313 1.307.379.742.9 1.476 1.157 1.632.657.398 2.107 3.54 1.835 3.978-.356.577.581.42 1.283-.215.876-.793 1.606-.149 2.114 1.868.213.849.528 1.63.698 1.735.17.105.328.618.35 1.14.042.945.044.944.268-.104.128-.595.49-1.105.832-1.17.75-.145 2.988 1.516 3.279 2.432.118.37.417.674.665.674.247 0 .73.309 1.071.686.611.675.642.666 1.866-.522 1.14-1.108 1.23-1.339 1.066-2.785-.147-1.3-.527-1.963-2.163-3.772-1.092-1.207-1.986-2.5-1.986-2.875 0-.374.55-1.23 1.223-1.903 1.122-1.122 1.348-1.205 2.734-1.005 1.147.165 1.848.043 2.909-.506.768-.398 1.676-.724 2.016-.724 1.273 0 3.03-2.05 3.801-4.438.65-2.013.68-2.382.242-3.008-.275-.392-.43-.98-.345-1.308.099-.377-.544-1.293-1.755-2.502-1.314-1.312-1.857-2.11-1.74-2.558.093-.357.293-.65.443-.65.151 0 .367-.24.48-.533.16-.419.015-.486-.672-.314-.636.16-1.214-.038-2.108-.719-.677-.516-1.23-1.108-1.23-1.315 0-.207.638-.996 1.419-1.754 1.193-1.158 1.53-1.318 2.117-1.005.383.206.697.601.697.879 0 .375.203.43.792.212 1.235-.457 2.735.22 2.735 1.233 0 .588.2.847.651.847.923 0 1.719 1.016 2.005 2.558.266 1.433.544 1.614 1.224.795.55-.664-.131-1.807-1.936-3.247-1.297-1.035-1.607-2.103-.709-2.448.291-.112.53-.612.53-1.113 0-1.36 1.275-2.552 2.474-2.312.869.174 1.02.059 1.389-1.06.844-2.558.76-3.95-.387-6.402-1.198-2.56-2.258-3.37-4.052-3.098-.608.092-1.213-.007-1.344-.22-.131-.212-.617-.386-1.08-.386-1.325 0-1.388-.602-.335-3.218.708-1.758 1.19-2.484 1.718-2.589 1.922-.382 6.884-.515 7.084-.191.428.693.882.336.882-.693 0-1.64 1.48-2.153 3.616-1.255.475.2.618.088.618-.483 0-1.089 1.519-.993 2.263.142.434.662.488 1.057.217 1.564-.2.374-.364 1.077-.364 1.563 0 .487-.158.983-.352 1.103-.788.487-.24 1.544 1.903 3.667l2.256 2.236.235-1.07c.129-.589.125-1.656-.01-2.372-.195-1.041-.48-1.4-1.432-1.798-.734-.307-1.21-.764-1.247-1.197-.161-1.918-.154-1.93 1.47-2.22.873-.156 2.024-.281 2.557-.278.534.003.97-.15.97-.34 0-.188.481-.635 1.068-.992 1.144-.696.979-1.122-.627-1.614-.753-.231-1.145-1.254-.48-1.254.173 0 .292-.278.265-.618-.04-.494.197-.6 1.186-.532 2.02.139.566-.457-4.02-1.648-4.656-1.209-6.696-1.354-7.516-.533-.311.31-.798.449-1.122.318-1.018-.41-5.397-.866-6.256-.65-.517.13-1.379-.074-2.26-.533-.996-.519-2.088-.746-3.62-.751-1.207-.005-3.374-.323-4.816-.706-3.07-.816-6.21-.927-6.478-.228-.118.306-.713.446-1.714.403-.843-.036-2.142.08-2.886.258-1.7.407-3.154.097-4.388-.938-1.223-1.025-3.104-1.463-3.801-.883-.356.295-1.04.346-2.19.162a38.841 38.841 0 0 0-3.468-.357c-2.96-.149-5.422-.568-5.668-.965-.126-.205.057-.583.407-.839.82-.6.452-.72-2.941-.967-1.423-.103-2.796-.36-3.05-.57-.338-.282-.599-.246-.979.134-.288.288-1.83.692-3.477.911-3.545.472-4.265.664-4.012 1.073.261.423-.993 1.05-2.102 1.05-.812 0-.862.073-.477.69.577.923.284 1.127-1.065.74-.841-.241-1.25-.195-1.627.183-.278.277-.675.504-.883.504-.207 0-.378.238-.378.53 0 .29.233.528.517.528.602 0 1.247 1.063 1.247 2.053 0 .832-1.512 1.902-2.274 1.61-.619-.238-.692-.772-.21-1.535.22-.348.162-.696-.18-1.058-1.143-1.217-2.275-2.783-2.275-3.149 0-.663-1.216-.43-1.686.323-.4.64-.319.788.797 1.446 1.323.78 1.715 2.078.625 2.07-.34-.004-1.57-.31-2.734-.68-1.973-.627-2.148-.633-2.573-.082-.362.468-1.127.6-3.704.643-3.247.053-5.188.492-5.188 1.173 0 .199-.547.361-1.214.361-.668 0-1.313.16-1.433.354-.12.195-.604.258-1.074.14-.698-.175-.92-.041-1.214.729-.266.701-.562.913-1.151.828-.437-.064-.959.095-1.16.353-.527.674-2.264.153-2.621-.787-.16-.42-.545-.975-.856-1.233-.751-.623-.722-1.444.051-1.433.34.005 1.319.17 2.176.368 2.012.463 3.07.13 1.77-.558-1.163-.615-5.587-1.646-5.992-1.396-.17.106-.658-.156-1.083-.582-.595-.595-1.144-.76-2.382-.713-.885.034-1.765.217-1.956.408-.19.191-.817.347-1.392.347-1.444 0-3.878 1.483-6.455 3.931-1.196 1.136-2.902 2.377-3.793 2.759-1.544.662-1.619.76-1.619 2.128 0 1.765.637 2.104 2.286 1.216 1.445-.778 1.91-.494 2.827 1.73.63 1.532.637 1.535 1.64 1.035.587-.293 1.008-.788 1.008-1.183 0-.374.32-1 .71-1.39.657-.656.67-.774.165-1.544-.446-.68-.469-1.004-.125-1.76.232-.508.546-.924.697-.924.152 0 1-.715 1.886-1.588 1.665-1.641 2.23-1.845 3.393-1.222 1.053.563.818 1.299-.744 2.333-.899.594-1.356 1.13-1.235 1.445.106.275.192.709.192.963 0 .722.96.916 2.654.536 1.527-.342 3.344.062 3.344.744 0 .662-1.613 1.369-2.67 1.17-1.045-.195-1.09-.157-.948.814.198 1.344-.716 2.188-1.703 1.571-.617-.385-.677-.317-.677.773 0 .994-.177 1.268-1.056 1.632-.58.24-1.384.351-1.786.246-.401-.105-1.266.033-1.922.307-1.208.505-4.186.366-4.952-.23-.214-.167-.546 0-.796.401-.288.461-.822.688-1.62.688-.945 0-1.383.254-2.131 1.235-.518.679-1.11 1.234-1.314 1.234-.205 0-.844.397-1.42.882-.577.485-1.255.882-1.507.882-.253 0-.66.242-.905.537-.282.34-.715.452-1.181.304-.614-.195-.549-.02.393 1.052.94 1.07 1.093 1.478.913 2.43-.398 2.116-.982 2.441-4.158 2.316l-2.829-.112-.257 1.764c-.39 2.667-.398 2.761-.338 3.636.032.467.213.718.424.587.202-.125.718 0 1.146.276 1.132.732 3.395.379 4.558-.711.527-.494.873-1.035.77-1.203-.335-.54 1.255-2.681 2.16-2.908.556-.14.875-.47.875-.906 0-.888 1.017-1.417 2.72-1.417.746 0 1.718-.253 2.16-.563.955-.67 2.458-.406 2.772.485.28.795 1.549 2.194 1.99 2.194.19 0 .877.405 1.525.9 1.827 1.393 1.395.621-.79-1.412-1.654-1.54-1.95-1.998-1.852-2.865.095-.833.308-1.054 1.106-1.146.753-.086 1.255.175 2.116 1.1.621.666 1.804 1.632 2.629 2.146 1.125.7 1.499 1.157 1.499 1.83 0 .493.397 1.48.882 2.194s.882 1.53.882 1.816c0 .383.103.414.397.12.293-.293.293-.691 0-1.534-.219-.625-.397-1.28-.397-1.455 0-.526 2.375-1.352 3.606-1.255 1.093.086 1.144.036 1.042-1.021-.06-.611.061-1.216.268-1.344.207-.127.382-.5.39-.828.008-.329.487-1.15 1.065-1.827l1.05-1.229 1.582.568c.869.313 1.58.438 1.58.278 0-.16.875-.567 1.945-.904 2.458-.775 3.108-.365 1.966 1.24l-.761 1.07.983.555c2.636 1.49 3.107 1.879 3.22 2.657.25 1.706-2.423 2.313-5.234 1.188-1.644-.658-2.174-.577-6.176.943-.388.147-.974.354-1.303.458-.495.157-.542.387-.271 1.331.18.628.45 1.265.602 1.416.398.398 5.675.684 5.9.32.105-.17.623-.193 1.152-.052.79.211.973.474 1.028 1.469.067 1.207-1.008 4.683-1.71 5.528-.203.245-.66.445-1.015.445-.615 0-.617.05-.047 1.044.548.955.62.985.854.352.337-.91 1.337-.895 1.337.02 0 .697 1.835 3.776 3.43 5.755.441.549.803 1.377.803 1.84 0 .463.476 1.385 1.058 2.048.582.663 1.059 1.31 1.059 1.438 0 .127.335.685.744 1.238.632.856 1.372 3.319 1.464 4.874.03.525 1.184.593 1.496.089.12-.194.437-.353.705-.353.97 0 5.431-2.29 5.582-2.864.084-.324.648-.698 1.252-.83 1.286-.283 3.57-2.188 3.58-2.986.002-.304.405-.932.894-1.395 1.094-1.038.988-1.453-.569-2.241-.667-.338-1.41-.881-1.649-1.206-.393-.534-.497-.539-1.058-.05-.343.297-1.181.625-1.863.729-1.476.224-2.56-.507-3.369-2.272-.295-.645-.927-1.712-1.404-2.371-.825-1.142-1.167-2.796-.602-2.914 1.653-.345 2.293-.13 3.085 1.035 1.055 1.552 3.36 2.983 4.075 2.53.902-.57 2.153-.385 2.345.347.269 1.029 1 1.208 5.151 1.262 3.757.05 3.822.065 4.778 1.111.533.584 1.216 1.207 1.518 1.385.302.177.782.8 1.067 1.381.3.614.73 1 1.023.92 1.69-.464 1.83-.312 2.488 2.721.35 1.615.961 3.46 1.356 4.1.396.639.719 1.351.719 1.583 0 .232.377 1.245.837 2.252.46 1.006.932 2.108 1.047 2.447.3.88.784.766 1.595-.373zm-36.437-8.144c-.5-.72-.909-1.461-.909-1.645 0-.185-.476-.785-1.058-1.334-.713-.673-1.058-1.34-1.058-2.044 0-.637-.321-1.35-.822-1.823-.452-.427-1.271-1.61-1.82-2.629-.55-1.018-1.132-1.852-1.295-1.852-.518 0-.324.677.624 2.18.507.802.949 1.643.982 1.867.033.225.412.856.842 1.404.499.633.783 1.484.783 2.344 0 .887.237 1.571.693 1.995.38.355.931 1.218 1.223 1.917.293.7.973 1.595 1.513 1.99l.98.72.115-.89c.069-.532-.25-1.415-.793-2.2zm12.244-9.038c.488-.67.512-.82.106-.664-.76.292-3.919-1.598-4.6-2.753-.72-1.218-1.863-1.427-1.218-.222.53.989 1.95 2.409 2.409 2.409.484 0 1.17 1.342.905 1.77-.12.196.219.342.778.335.637-.007 1.216-.32 1.62-.875zm-33.829-6.671c-.47-1.225 2.585-2.621 3.584-1.638.665.655 5.584 1.762 6.063 1.365.433-.36 2.11-.24 3.31.235.443.176.698-.165 1.146-1.535.856-2.618.772-3.179-.302-2.02-.738.797-.995.886-1.606.56-.46-.247-.689-.67-.621-1.148.098-.697-.058-.76-1.945-.794-1.82-.033-2.147-.154-2.898-1.073-.465-.569-.872-1.392-.903-1.829-.09-1.254-.13-1.425-.393-1.688-.136-.136-.498.003-.805.31-.457.457-.48.682-.122 1.255.35.56.34.876-.052 1.608-.576 1.077-.264 1.5 1.227 1.663 1.275.14 1.449 1.119.229 1.291-1.231.175-2.522-.238-2.522-.806 0-.274-.332-.604-.738-.732-.405-.13-.973-.8-1.262-1.49-.882-2.11-1.564-2.966-2.046-2.566-.236.195-.533.251-.66.123-.128-.127-.233.01-.233.305s-.373.939-.83 1.431c-.455.492-.927 1.15-1.046 1.463-.268.697-.449.69-2.004-.07-.796-.39-1.235-.854-1.235-1.306 0-.574.274-.722 1.5-.811.824-.06 1.499-.23 1.499-.38 0-.377-1.31-1.49-3.087-2.623-1.592-1.015-1.61-1-1.509 1.234.061 1.332-.825 2.291-1.63 1.765-.502-.328-.865-2.823-.448-3.08a.4.4 0 0 0 .123-.552c-.117-.189.042-.733.354-1.21l.568-.866-1.111.676c-.752.457-1.483.615-2.263.489-.998-.162-1.215-.055-1.63.798-.264.542-.956 1.246-1.538 1.566-.697.381-1.097.905-1.17 1.53-.172 1.45-2.37 3.395-3.911 3.464l-1.27.056 1.136.142c.662.082 1.813-.159 2.762-.578 1.751-.775 5.849-1.37 8.98-1.305l1.94.04.008 2.06c.01 2.26.172 2.455 2.362 2.849.722.13 1.516.521 1.764.871.747 1.052 3.595 1.89 3.235.95zm110.045-4.084c1.057 0 1.068-.072.473-2.887-.452-2.14-.92-3.094-.666-1.355.12.809-.084 1.282-.901 2.099-1.553 1.553-1.96 4.053-.434 2.673.322-.292 1.01-.53 1.528-.53zm-3.74.14c-.117-.118-.42-.13-.675-.028-.282.112-.198.196.213.213.372.015.58-.068.463-.186zm-14.346-4.493c-.43-1.131-.584-1.16-1.095-.204-.32.597-.273.823.252 1.21.867.641 1.281.147.843-1.006zm-92.614-2.684c-.13-.21-.85-.695-1.6-1.077-.75-.383-1.573-.987-1.828-1.342-.255-.355-.746-.75-1.09-.879-.468-.174-.379.077.352.994.539.675 1.091 1.227 1.228 1.227s.836.398 1.554.886c1.28.868 1.851.947 1.384.19zm11.806-.548c1.152-.658 2.78-.658 4.356 0 1.417.592 3.26.698 3.564.205.247-.399-3.6-2.85-4.474-2.85-.348 0-.961.198-1.363.44-.651.394-.855.297-1.9-.899l-1.169-1.34-.666.987c-1.979 2.933-1.888 3.533.594 3.933.097.015.573-.199 1.058-.476zm99.13-1.178c0-.163-.396-.477-.881-.698-.712-.324-.882-.307-.882.09 0 .494.499.824 1.323.876.242.016.44-.105.44-.268zm-126.325-9.1c.26-.224-1.18-2.616-2.216-3.678-.836-.857-.936-1.131-.574-1.567.266-.32.294-.528.071-.528-.202 0-.618-.097-.925-.215-.9-.345-.66.636.5 2.044 1.062 1.288 1.126 2.404.139 2.404-.58 0-.628.497-.138 1.412.283.53.614.62 1.675.456.728-.112 1.388-.26 1.468-.328zm-6.648-1.2c.397-.213.682-.736.682-1.254 0-.844-.04-.862-.77-.35-.424.296-.794.861-.823 1.254-.06.824-.01.843.91.35zm21.42-2.746c1.093.083 1.948-.308 1.667-.764-.36-.583.502-2.122 1.19-2.122.836 0 .636-1.201-.31-1.864-.339-.237-.729-1.1-.867-1.918-.25-1.479-.256-1.484-1.104-.929-.978.64-1.083 1.258-.324 1.889.744.617.661 1.183-.317 2.161-.465.466-.902 1.23-.97 1.698-.072.496-.554 1.088-1.158 1.421-1.56.862-1.598 1.528-.05.882.696-.29 1.705-.495 2.243-.454zm-7.205-.945c.112-.291.05-.53-.138-.53s-.342.239-.342.53c0 .29.062.529.139.529.076 0 .23-.238.341-.53zm.931-2.294c0-.194-.07-.352-.156-.352-.085 0-.253.158-.373.352-.12.195-.05.353.155.353.206 0 .374-.158.374-.353zm9.878-6.729c0-.167-.238-.213-.53-.1-.29.11-.529.339-.529.506 0 .167.239.213.53.101.29-.112.529-.34.529-.507zm120.752-.718c-.21-.209-.675-.31-1.035-.224-.567.135-.537.205.227.521.995.412 1.377.272.808-.297zm-99.225 99.954c-.475-.385-.898-1.283-1.091-2.319-.261-1.396-.198-1.922.364-3.024.377-.738.592-1.67.483-2.087-.108-.414-.093-1.306.034-1.982.193-1.03.484-1.34 1.805-1.925.997-.441 1.7-1.027 1.918-1.598.188-.496.488-.901.666-.901.177 0 .422-.397.544-.882.122-.485.437-.882.701-.882.877 0 2.014 4.192 1.365 5.031-.186.24-1.022 2.558-1.858 5.15-1.335 4.141-1.652 4.793-2.612 5.378-1.338.816-1.36.817-2.319.04zm1.979-1.053c.747-.485 3.663-10.061 3.655-12.007 0-.39-.504-.013-1.438 1.076-.79.922-1.65 1.676-1.913 1.676-1.067 0-1.657 1.113-1.422 2.683.158 1.054.061 1.834-.32 2.572-1.167 2.255-.165 5.04 1.438 4zm114.274-2.991c-1.233-1.232-1.57-2.148-.934-2.54.548-.34 1.368.168 2.349 1.454.856 1.122.892 1.288.391 1.789-.5.5-.668.435-1.806-.703zm12.591-3.676c-.657-.265-.533-1.518.177-1.784.34-.127.776-.438.97-.69.194-.251.885-.562 1.535-.69 1.031-.203 1.166-.147 1.056.436-.07.368-.482.826-.918 1.017-.435.192-.791.543-.791.781 0 .364-1.12 1.225-1.476 1.136a7.69 7.69 0 0 1-.553-.206zm-9.914-2.791c-.425-.935-.26-2.267.282-2.267.986 0 1.641 2.894.7 3.088-.326.067-.731-.272-.982-.821zm-16.456-5.946c-.917-.28-1.658-.819-2.117-1.537-.818-1.284-2.11-1.515-2.395-.428-.145.556-.481.705-1.585.705-.823 0-1.585-.22-1.846-.536-.316-.38-.788-.471-1.627-.314-1.435.27-1.969-.563-1.028-1.603.466-.515.516-.82.223-1.367-.4-.747-3.356-2.052-4.291-1.894-.556.093-1.569-1.502-1.44-2.269.036-.219-.254-.482-.645-.584-1.09-.285-.881-1.444.343-1.907 1.907-.72 3.532.18 3.532 1.953 0 .798.05.825.617.331 1.42-1.238 2.217-1.434 3.57-.876l3.574 1.47c1.261.519 2.734 1.423 3.274 2.01.798.87 1.077.989 1.495.642.282-.234.754-.334 1.047-.221.294.112.534.032.534-.179 0-.21.304-.303.675-.206.898.235 1.286-1.107.489-1.69-.614-.448-.355-1.226.407-1.226.639 0 2.662 1.927 2.662 2.535 0 .269-.674 1.01-1.5 1.65-1.188.92-1.73 1.123-2.623.982-1.999-.315-2.08.52-.228 2.346 1.4 1.38 1.578 1.704 1.191 2.17-.515.62-.42.619-2.308.043zm-.562-2.053a8.48 8.48 0 0 0-.93-1.391c-.287-.328-.456-.79-.377-1.026.25-.754-1.947-2.697-3.952-3.493-1.067-.424-2.305-.915-2.75-1.09-1.297-.512-2.01-.379-2.87.535l-.804.856 1.405.717c1.471.75 1.844 1.3 1.844 2.716 0 .489.207.853.486.853.268 0 .684.238.925.529.546.657 2.117.7 2.117.056 0-.62 1.67-1.368 2.479-1.112.348.111 1.052.751 1.565 1.422 1.063 1.395 1.465 1.594.862.428zm-13.725-8.379c0-.194-.327-.353-.727-.353-.4 0-.628.16-.508.353.12.194.447.353.726.353.28 0 .509-.159.509-.353zm26.233 10.407c-.112-.29-.504-.53-.871-.53-.465 0-.668-.25-.668-.826 0-1.027-.89-1.844-2.345-2.152-1.665-.354-2.874-2.028-2.202-3.05.266-.405.472-.334 1.114.384.433.486 1.872 1.415 3.199 2.066 2.055 1.008 2.504 1.4 3.042 2.646.346.804.562 1.581.478 1.727-.272.471-1.538.28-1.747-.265zm-36.957-.386c-.445-1.16 3.254-3.48 4.41-2.767.402.249.415 1.213.017 1.213-.165 0-.998.473-1.852 1.052-1.772 1.2-2.27 1.297-2.575.502zm-3.955-.443c-.386-.36-1.074-.637-1.53-.618-.94.04-1.223-.421-.733-1.198.252-.399 1.113-.539 3.522-.574 2.917-.043 3.19.01 3.19.625 0 .464-.328.737-1.06.883-.724.145-1.058.42-1.058.873 0 .878-1.393.883-2.331.008zm14.914-3.11c-.409-.41-.255-1.78.247-2.196.367-.304.588-.273.924.132.357.43.33.7-.138 1.415-.63.963-.685.997-1.033.649zm-14.572-1.705c-.111-.291-.109-.774.005-1.073.115-.298.025-.836-.199-1.195-.315-.505-.282-1.09.144-2.589.53-1.866.527-1.93-.116-1.762-.367.096-.667.455-.667.799 0 .343-.237 1.078-.527 1.634-.29.556-.528 1.28-.53 1.607-.003 1.026-1.808 1.687-2.665.977-.25-.208-1.178-.436-2.062-.508-1.858-.152-2.33-.374-2.33-1.099 0-.286-.254-.908-.564-1.38-1.135-1.733-.576-4.407.922-4.407.344 0 .716-.238.828-.53.112-.29.49-.529.841-.529.352 0 1.505-1.026 2.569-2.287 1.062-1.257 2.1-2.29 2.308-2.293.207-.003.722.391 1.144.876.422.485.91.882 1.084.882.743 0 .636 1.072-.19 1.897l-.892.893.801 1.425c.717 1.276.86 1.37 1.37.908.396-.357.978-.45 1.897-.3.82.133 1.658.037 2.196-.25.646-.346.972-.364 1.268-.068.496.496-.512 2.198-1.303 2.198-.286 0-.52.312-.52.693 0 .381-.31.858-.686 1.06-.676.362-.676.39.046 2.126.594 1.43.648 1.859.289 2.292-.587.707-.903.671-1.707-.191l-.674-.723-.189.723c-.222.85-1.585.99-1.891.194zm-2.95-3.634c0-.543.19-1.178.424-1.41.8-.802 1.207-2.66.877-4.016-.243-1-.187-1.482.242-2.095.51-.73.508-.844-.03-1.354-.539-.511-.71-.428-2.108 1.03-.837.874-1.521 1.7-1.521 1.836 0 .135-.357.36-.794.497-.436.138-1.001.546-1.255.906-.253.36-.77.655-1.146.655-.52 0-.686.245-.686 1.015 0 .558.238 1.213.53 1.454.29.242.529.738.529 1.102 0 .387.256.672.617.685 1.52.055 2.967.269 3.165.467.549.549 1.157.143 1.157-.772zm4.94-.47c0-.127-.222-.316-.493-.42-.316-.12-.55.108-.651.637-.139.726-.08.777.493.42.358-.224.65-.51.65-.637zm1.41-1.935c0-.074-.317-.135-.705-.135-.388 0-.706.144-.706.32 0 .176.318.237.706.135.388-.101.706-.245.706-.32zm3.332 4.138c-.086-.087-.156-.427-.156-.756 0-.445.42-.656 1.636-.823 2.39-.328 2.839-.285 3.454.33 1.11 1.11.668 1.405-2.111 1.405-1.466 0-2.736-.07-2.823-.156zm1.62-3.544c-.518-.968-.453-3.04.11-3.507.363-.3.624-.23 1.1.296.497.548.576 1.02.385 2.292-.257 1.72-.953 2.12-1.595.919zm-2.724-6.747c-.423-.16-.934-.598-1.134-.971-.259-.484-.62-.63-1.257-.508-.758.145-.895.04-.895-.682 0-.468.177-1.03.394-1.246.29-.289.243-.695-.177-1.535-.313-.629-.57-1.269-.57-1.423 0-.154-.396-.709-.882-1.232-.485-.524-.881-1.228-.881-1.566 0-.337-.233-1.062-.518-1.61-.284-.548-.433-1.4-.33-1.893.102-.492.259-1.252.347-1.689.124-.611.405-.794 1.222-.794 1.297 0 1.912 1.258 1.595 3.264-.162 1.031-.092 1.322.319 1.322.607 0 3.5 2.717 3.807 3.573.113.316.043.737-.155.935-.246.246-.124.597.38 1.102 1.093 1.092 1.158 3.505.125 4.593-.452.476-.826.573-1.39.36zm.83-3.389c-.36-.36-.94.28-.94 1.04v.763l.564-.807c.311-.444.48-.892.377-.996zm-1.117-1.176c.12-.194.06-.353-.135-.353-.194 0-.45.159-.57.353-.12.194-.06.352.134.352s.45-.158.57-.352zm-.882-2.637c0-.092-.476-.414-1.058-.715-.583-.3-1.059-.397-1.059-.215 0 .264.783.676 2.029 1.07.048.015.088-.048.088-.14zm-2.94-5.983c-.118-.304-.394-.553-.615-.553-.22 0-.305.251-.187.559.118.306.214.735.214.952 0 .288.108.286.4-.005.22-.22.304-.648.187-.952zm-3.763 9.876c0-.898 1.917-3.72 2.465-3.629 1.035.173.79 1.38-.563 2.765-1.43 1.463-1.902 1.678-1.902.864zM86.192 69.875c-.428-.346-.65-.795-.507-1.026.358-.58 2.16-.51 2.668.104.918 1.106-.95 1.903-2.161.922zm5.878.328c-.12-.194-.69-.353-1.266-.353-1.229 0-1.748-.887-.887-1.516.475-.346.24-.403-1.279-.311-1.754.106-1.884.055-2.298-.898-.619-1.426-3.37-2.302-4.766-1.519-.74.415-1.037.437-1.372.103-.61-.61.507-1.753 2.212-2.264 1.098-.329 1.69-.292 3.26.202 1.054.331 2.182.896 2.506 1.254.325.359 1.055.844 1.623 1.08.568.235 1.033.567 1.033.737 0 .17.808.31 1.797.31 1.208 0 2.11.223 2.75.678.523.373 1.5.73 2.17.794.946.09 1.22.274 1.22.821 0 .787-1.334 1.174-2.048.594-.529-.43-3.029-.244-3.535.263-.473.472-.838.48-1.12.025zm1.588-1.764c.41-.265.307-.343-.462-.347-.572-.003-.899.144-.773.347.27.438.557.438 1.235 0zm-82.339.448c-.116-.116-.211-.636-.211-1.154 0-.752-.286-1.08-1.407-1.617-1.347-.645-1.769-1.296-1.106-1.706.824-.509 4.63 2.232 4.63 3.334 0 .602-1.53 1.52-1.906 1.143zm265.325-4.396c-.454-.938-.472-1.309-.106-2.205.476-1.167 1.532-1.611 2.015-.848.275.435.156 2.009-.27 3.563-.266.967-1.04.726-1.639-.51zM148.54 20.507c-.723-.156-1.168-.557-1.487-1.336-.7-1.718-.027-2.047 4.307-2.11 3.585-.053 3.626-.044 3.844.825.3 1.193-.275 1.77-2.386 2.397-1.87.555-2.572.592-4.278.224zm4.649-1.494c1.27-.478.965-1.086-.414-.827-.664.124-1.775.242-2.47.262-.742.021-1.261.214-1.261.47 0 .828 2.074.876 4.145.095zm49.036-5.514c-1.583-.65-1.65-1.211-.381-3.169.796-1.228 1.244-1.533 2.91-1.98 2.664-.715 5.181-1.034 6.03-.764 1.166.37.8 1.18-.71 1.572l-2.809.73c-1.2.31-2.482 1.41-2.482 2.128 0 .12.413.406.918.636.756.344.842.51.486.938-.543.654-2.241.615-3.962-.09zm1.278-1.318c-.11-.286.136-.945.545-1.465 1.113-1.415.528-1.512-.67-.111-1.219 1.426-1.27 1.636-.447 1.851.34.089.652.18.694.203.043.022-.012-.193-.122-.478zm-28.99-4.804c-2.17-1.596-1.835-2.419.99-2.423.484 0 2.469-.091 4.409-.201 3.809-.216 4.893.06 4.08 1.04-.255.306-.8.559-1.213.562-.607.004-.65.069-.224.338.693.438.143.987-1.273 1.27-.736.147-1.252.042-1.624-.33-.494-.494-.607-.48-1.171.143-.897.99-2.272.852-3.974-.399zm3.113-.507c.616-.742.246-.985-1.063-.698-1.025.226-1.06.279-.466.728.823.624.989.62 1.529-.03zm17.014-1.107c-.913-.194-1.058-1-.235-1.316.307-.118 1.33-.214 2.272-.214 1.676 0 2.492.464 1.884 1.07-.388.388-2.88.68-3.92.46z"/>
</svg>
